<svg width="20" height="24" viewBox="0 0 20 24" fill="none" xmlns="http://www.w3.org/2000/svg">
<path fill-rule="evenodd" clip-rule="evenodd" d="M9.125 20.3333C13.7274 20.3333 17.4583 16.6024 17.4583 12C17.4583 7.39763 13.7274 3.66667 9.125 3.66667C4.52263 3.66667 0.791667 7.39763 0.791667 12C0.791667 16.6024 4.52263 20.3333 9.125 20.3333ZM9.125 22C3.60215 22 -0.875 17.5228 -0.875 12C-0.875 6.47715 3.60215 2 9.125 2C14.6478 2 19.125 6.47715 19.125 12C19.125 17.5228 14.6478 22 9.125 22ZM7.9308 14.2011L4.71408 10.9863L3.53592 12.1652L7.93246 16.559L14.9983 9.47749L13.8185 8.30029L7.9308 14.2011Z" fill="#0065F2"/>
</svg>
